# xmcd
#
# Track frame offsets:
#	150
#	18562
#	42912
#	60352
#	75885
#	86910
#	103755
#	117055
#	131922
#	151597
#	167220
#	183932
#	200852
#	211672
#	222955
#	235712
#	253580
#	267132
#	284032
#
# Disc length: 3983 seconds
#
# Revision: 0
# Processed by: cddbd v1.5.2PL0 Copyright (c) Steve Scherf et al.
# Submitted via: audiograbber 1.83.01
#
DISCID=070f8d13
DTITLE=Golddisc - 1008
DYEAR=1900
DGENRE=
TTITLE0=Crystal Gale - Half The Way 
TTITLE1=Alabama - Dixieland Delight
TTITLE2=Ronnie Milsap - Smokey Mountain Rain
TTITLE3=John Conlee - As Long As I'm Rockin' With You
TTITLE4=Forester Sisters - Just In Case
TTITLE5=Lee Greenwood - Ring On Her Finger, Time On Her Hands
TTITLE6=Lynn Anderson - Rose Garden
TTITLE7=Johnny Lee - You Could've Heard A Heart Break
TTITLE8=Willie Nelson - Georgia On My Mind
TTITLE9=Eddie Rabbit - I Don'nt Know Where To Start
TTITLE10=Oak Ridge Boys - Elvira
TTITLE11=Ricky Skaggs - Cajun Moon
TTITLE12=Conway Twitty - Boogie Grass Band
TTITLE13=Whites - Hangin' Around
TTITLE14=Anne Murray - I Just Fall In Love Again
TTITLE15=Hank Williams JR - All My Rowdy Friends Have Settled Down
TTITLE16=Tompall and The Glaser Brothers - Lovin' Her Was Easier
TTITLE17=Kenny Rogers - Evening Star
TTITLE18=Pake McEntire - Savin' My Love For You
EXTD=
EXTT0=
EXTT1=
EXTT2=
EXTT3=
EXTT4=
EXTT5=
EXTT6=
EXTT7=
EXTT8=
EXTT9=
EXTT10=
EXTT11=
EXTT12=
EXTT13=
EXTT14=
EXTT15=
EXTT16=
EXTT17=
EXTT18=
PLAYORDER=
